<svg width="18" height="14" viewBox="0 0 18 14" fill="none" xmlns="http://www.w3.org/2000/svg">
<path fill-rule="evenodd" clip-rule="evenodd" d="M3.18964 12.4145C3.19302 12.343 3.32364 10.0518 7.6936 10.0485C8.04716 10.0485 8.43563 10.0474 8.81959 10.0474V12.1068C8.81959 12.876 9.46816 13.5 10.2676 13.5C10.5851 13.5 10.879 13.4014 11.1177 13.2335V13.2346L11.1234 13.2303C11.1808 13.1891 11.2348 13.1447 11.2855 13.0959L17.09 8.3195H17.0889C17.5359 8.02483 17.8275 7.54275 17.8275 7C17.8275 6.45725 17.5359 5.97625 17.09 5.68158V5.6805L11.2889 0.907333C11.0277 0.656 10.6662 0.5 10.2676 0.5C9.46816 0.5 8.81959 1.124 8.81959 1.89317V3.932C8.35231 3.932 7.93006 3.93308 7.6936 3.93417C0.479383 3.97208 0.921898 12.1545 0.937662 12.4102V12.4167C0.937662 13.0147 1.44211 13.5 2.06365 13.5C2.6852 13.5 3.18964 13.0147 3.18964 12.4167V12.4145Z" fill="white"/>
</svg>
