<svg width="16" height="18" viewBox="0 0 16 18" fill="none" xmlns="http://www.w3.org/2000/svg">
<g clip-path="url(#clip0_3414_287)">
<path fill-rule="evenodd" clip-rule="evenodd" d="M13.6824 4.65759L14.2831 3.88954L12.747 2.66854L12.1365 3.4366C11.1888 2.86447 10.1325 2.49561 9.0347 2.35344V1.02411H10.0194V0.0394287H6.08065V1.02411H7.06533V2.35344C5.30295 2.57632 3.66764 3.38832 2.42487 4.65765C1.1821 5.92699 0.404864 7.57913 0.219312 9.34583C0.0337588 11.1125 0.450789 12.8901 1.40272 14.3899C2.35464 15.8898 3.78559 17.0238 5.46321 17.608C7.14083 18.1922 8.96663 18.1922 10.6442 17.608C12.3219 17.0238 13.7528 15.8897 14.7047 14.3898C15.6566 12.89 16.0736 11.1124 15.8881 9.34571C15.7025 7.57901 14.9252 5.92691 13.6824 4.65759ZM11.0041 12.1215C10.8725 12.345 10.6581 12.5077 10.4074 12.574C10.1566 12.6404 9.88982 12.6052 9.66491 12.476L7.69554 11.3436C7.51233 11.2706 7.35525 11.1443 7.24464 10.981C7.13404 10.8178 7.075 10.625 7.07519 10.4278V7.21777C7.07519 6.95662 7.17895 6.70615 7.36361 6.52148C7.54827 6.33682 7.79872 6.23309 8.05987 6.23309C8.32102 6.23309 8.5715 6.33682 8.75616 6.52148C8.94083 6.70615 9.04455 6.95662 9.04455 7.21777V9.84686L10.6594 10.7725C10.8735 10.9053 11.0285 11.115 11.0926 11.3586C11.1567 11.6022 11.125 11.8612 11.0041 12.0821V12.1215Z" fill="white"/>
</g>
<defs>
<clipPath id="clip0_3414_287">
<rect width="15.7549" height="18" fill="white" transform="translate(0.172546)"/>
</clipPath>
</defs>
</svg>
